HIERARCHY
ROOT Hips
{
    OFFSET 0.000000 0.000000 0.000000
    CHANNELS 6 Xposition Yposition Zposition Zrotation Xrotation Yrotation
    JOINT Spine
    {
        OFFSET -0.000000 7.790525 0.000000
        CHANNELS 3 Zrotation Xrotation Yrotation
        JOINT Spine1
        {
            OFFSET -0.000000 20.430923 0.000000
            CHANNELS 3 Zrotation Xrotation Yrotation
            JOINT Neck
            {
                OFFSET -0.000000 22.331051 0.000000
                CHANNELS 3 Zrotation Xrotation Yrotation
                JOINT Head
                {
                    OFFSET -0.000000 14.725992 1.900128
                    CHANNELS 3 Zrotation Xrotation Yrotation
                    End Site
                    {
                        OFFSET -0.000000 19.001280 0.000000
                    }
                }
            }
            JOINT LeftShoulder
            {
                OFFSET 3.812537 19.294388 -0.177115
                CHANNELS 3 Zrotation Xrotation Yrotation
                JOINT LeftArm
                {
                    OFFSET 9.162892 0.000000 0.000000
                    CHANNELS 3 Zrotation Xrotation Yrotation
                    JOINT LeftForeArm
                    {
                        OFFSET 30.063545 0.000000 0.000000
                        CHANNELS 3 Zrotation Xrotation Yrotation
                        JOINT LeftHand
                        {
                            OFFSET 28.325521 0.000000 0.000000
                            CHANNELS 3 Zrotation Xrotation Yrotation
                            End Site
                            {
                                OFFSET 14.250961 0.000000 0.000000
                            }
                        }
                    }
                }
            }
            JOINT RightShoulder
            {
                OFFSET -3.786349 19.294388 -0.177115
                CHANNELS 3 Zrotation Xrotation Yrotation
                JOINT RightArm
                {
                    OFFSET -9.162892 0.000000 0.000000
                    CHANNELS 3 Zrotation Xrotation Yrotation
                    JOINT RightForeArm
                    {
                        OFFSET -30.063545 0.000000 0.000000
                        CHANNELS 3 Zrotation Xrotation Yrotation
                        JOINT RightHand
                        {
                            OFFSET -28.325521 0.000000 0.000000
                            CHANNELS 3 Zrotation Xrotation Yrotation
                            End Site
                            {
                                OFFSET -14.250961 0.000000 0.000000
                            }
                        }
                    }
                }
            }
        }
    }
    JOINT LeftUpLeg
    {
        OFFSET 9.500640 0.000000 0.000000
        CHANNELS 3 Zrotation Xrotation Yrotation
        JOINT LeftLeg
        {
            OFFSET -0.000000 -41.640518 0.000000
            CHANNELS 3 Zrotation Xrotation Yrotation
            JOINT LeftFoot
            {
                OFFSET -0.000000 -37.182968 0.000000
                CHANNELS 3 Zrotation Xrotation Yrotation
                JOINT LeftToeBase
                {
                    OFFSET -0.000000 -6.175416 14.250961
                    CHANNELS 3 Zrotation Xrotation Yrotation
                    End Site
                    {
                        OFFSET -0.000000 0.000000 3.800256
                    }
                }
            }
        }
    }
    JOINT RightUpLeg
    {
        OFFSET -9.500640 0.000000 0.000000
        CHANNELS 3 Zrotation Xrotation Yrotation
        JOINT RightLeg
        {
            OFFSET -0.000000 -41.640518 0.000000
            CHANNELS 3 Zrotation Xrotation Yrotation
            JOINT RightFoot
            {
                OFFSET -0.000000 -37.182968 0.000000
                CHANNELS 3 Zrotation Xrotation Yrotation
                JOINT RightToeBase
                {
                    OFFSET -0.000000 -6.175416 14.250961
                    CHANNELS 3 Zrotation Xrotation Yrotation
                    End Site
                    {
                        OFFSET -0.000000 0.000000 3.800256
                    }
                }
            }
        }
    }
}
MOTION
Frames:    14
Frame Time:    0.010000
35.106853    89.346222    78.008949    -2.625237    0.209052    -12.742160    -4.729199    -9.657912    -3.698877    0.735173    3.832520    -1.109580    0.296463    20.842066    -20.541702    13.917624    -6.657613    -22.002953    0.890096    7.832544    2.232590    -78.172615    53.851868    -0.397871    12.797133    -21.239849    -9.088159    -22.207788    -20.163605    -0.658627    -3.536678    0.625016    -7.391531    24.476511    12.625826    17.788275    -34.039108    -70.860672    3.872088    -28.551828    -68.721237    -19.498306    -0.609556    5.684190    8.716737    -0.432560    2.351534    6.054071    1.236813    -10.061537    17.369112    0.000000    0.000000    0.000000    -2.611822    0.171727    3.723329    2.319493    6.033028    9.883271    -0.545782    -5.872674    -4.921699    0.000000    0.000000    0.000000    
35.109295    89.339348    78.020462    -2.608698    0.181363    -12.671643    -4.715014    -9.642126    -3.685583    0.670243    3.845840    -1.103727    0.294658    20.858892    -20.485743    13.927838    -6.667833    -21.945803    0.900999    7.855945    2.221619    -78.185028    53.849236    -0.398300    12.759287    -21.402557    -8.976995    -22.774805    -20.331303    -0.698947    -3.588085    0.457419    -7.431325    24.969725    12.619430    17.436819    -32.720188    -71.167038    6.284252    -34.200687    -67.888908    -24.128256    -0.625131    5.714071    8.652206    -0.436509    2.342176    6.065641    1.218128    -10.075896    17.349028    0.000000    0.000000    0.000000    -2.637145    0.223189    3.702966    2.322259    6.007706    9.863738    1.330360    -5.686877    -5.294553    0.000000    0.000000    0.000000    
35.123020    89.341835    78.038185    -2.599708    0.145859    -12.629602    -4.665548    -9.636806    -3.638194    0.607732    3.902886    -1.087645    0.285549    20.882359    -20.410137    13.924829    -6.767172    -21.859167    0.877116    7.839042    2.240017    -78.173363    53.932053    -0.405007    12.718978    -21.574146    -8.867785    -22.877098    -20.500689    -0.790128    -3.576148    0.498151    -7.491182    25.593470    11.568393    16.938114    -29.276443    -70.584976    10.737350    -33.880836    -67.014610    -22.911949    -0.603678    5.792511    8.600073    -0.427436    2.315790    6.084876    1.990878    -10.040051    16.977844    0.000000    0.000000    0.000000    -2.682715    0.294863    3.692582    2.356129    5.990872    10.053058    -0.419495    -5.907764    -5.211780    0.000000    0.000000    0.000000    
35.126972    89.342674    78.040001    -2.595937    0.143682    -12.567326    -4.708248    -9.550160    -3.529384    0.693024    3.784819    -1.053666    0.367708    20.830101    -20.386654    13.729067    -6.721351    -21.802885    0.838094    7.886091    2.096958    -78.172234    53.776100    -0.386091    12.583666    -21.655790    -8.889635    -23.138681    -20.590084    -0.783625    -3.530022    0.571929    -7.651731    24.870630    16.215082    17.530323    -42.073185    -71.489616    -0.844165    -38.311459    -68.196121    -27.873161    -0.645262    5.759386    8.567372    -0.444526    2.320436    6.010655    1.122635    -10.049898    17.375481    0.000000    0.000000    0.000000    -2.642903    0.301024    3.552752    2.259803    5.973440    9.775064    -0.370102    -5.883430    -4.838357    0.000000    0.000000    0.000000    
35.125160    89.347099    78.036568    -2.601739    0.154237    -12.510819    -4.615088    -9.637046    -3.558475    0.586026    3.941230    -1.062246    0.234376    20.675779    -20.236666    13.751163    -6.564277    -21.711998    0.840082    7.835205    2.195421    -78.176529    53.949394    -0.384951    12.635837    -21.858656    -8.789330    -23.527452    -20.775366    -0.902059    -3.439723    0.800454    -7.534716    26.263115    12.100074    16.519779    -30.982590    -70.388947    11.677509    -38.078594    -65.812973    -25.766312    -0.616503    5.741989    8.503696    -0.471760    2.315732    6.012035    1.194694    -10.014254    17.360434    0.000000    0.000000    0.000000    -2.671733    0.294926    3.631072    2.345656    6.001303    9.991883    1.280500    -5.704890    -5.500658    0.000000    0.000000    0.000000    
35.130383    89.349014    78.033195    -2.592387    0.166447    -12.450708    -4.663335    -9.554465    -3.423895    0.664169    3.819787    -1.019062    0.302453    20.847315    -20.255762    13.792526    -6.786100    -21.685839    0.884661    7.892262    2.047609    -78.096786    53.445091    -0.436005    12.249086    -21.737795    -9.105110    -23.565084    -20.678843    -0.752077    -3.309054    0.859281    -7.758888    26.214500    13.862520    16.437639    -35.224735    -70.573372    8.893692    -40.973946    -65.492348    -28.266415    -0.608015    5.715862    8.436072    -0.489112    2.339822    5.970624    1.238760    -10.049190    17.404144    0.000000    0.000000    0.000000    -2.659154    0.267649    3.625016    2.303754    6.014921    9.824251    -0.416778    -5.895804    -5.052812    0.000000    0.000000    0.000000    
35.140224    89.350014    78.022995    -2.599316    0.160075    -12.371912    -4.618656    -9.509402    -3.410981    0.676935    3.826819    -1.017247    0.182802    20.745735    -20.135124    13.752592    -6.729148    -21.604557    0.878138    7.764666    2.067057    -78.174072    53.496609    -0.409795    12.189592    -21.822903    -8.910524    -23.896988    -20.746675    -0.953246    -3.317621    0.886793    -7.805367    26.861055    13.642883    16.025175    -34.682156    -70.108719    11.118619    -42.550190    -64.305191    -28.992722    -0.594004    5.692022    8.360415    -0.494391    2.366116    5.950549    1.243928    -10.041434    17.407215    0.000000    0.000000    0.000000    -2.800145    0.244825    3.877041    2.633806    6.136749    10.165216    1.109042    -5.792669    -6.085588    0.000000    0.000000    0.000000    
35.106968    89.335289    78.041374    -2.596167    0.228662    -12.333649    -4.631366    -9.597166    -3.332762    0.714246    3.833789    -0.990784    0.140802    20.867552    -19.975672    13.811627    -6.946880    -21.432196    0.896208    7.784545    2.060371    -78.222549    53.306507    -0.255710    12.081121    -21.833929    -9.267313    -23.960627    -20.763199    -0.784568    -3.223887    0.967462    -7.939265    27.542969    12.535078    15.410729    -31.412750    -69.213287    15.905661    -41.188419    -63.313725    -26.650400    -0.516858    5.661737    8.319429    -0.578973    2.340608    5.849148    1.309698    -10.088339    17.475971    0.000000    0.000000    0.000000    -2.749701    0.238521    4.066116    2.609769    6.040133    9.917683    -0.565985    -5.979106    -5.752923    0.000000    0.000000    0.000000    
35.143585    89.349106    78.022812    -2.589441    0.181524    -12.233834    -4.538184    -9.470105    -3.304250    0.667200    3.799221    -0.984094    0.020311    20.748150    -19.772308    13.736466    -6.934089    -21.259157    0.865315    7.785578    2.080326    -78.186989    53.340378    -0.309700    12.111791    -21.934910    -9.284715    -24.100998    -20.853985    -0.814180    -3.322104    0.836898    -8.100409    28.423975    11.762399    14.785806    -28.975859    -68.358246    20.122118    -40.539791    -62.220280    -25.245949    -0.498917    5.682358    8.188268    -0.569620    2.381786    5.816077    2.138218    -10.004033    17.193195    0.000000    0.000000    0.000000    -2.801462    0.260890    3.947567    2.638109    6.081100    9.993193    -0.044035    -5.901120    -5.906054    0.000000    0.000000    0.000000    
35.148525    89.353683    78.012215    -2.572941    0.198643    -12.158869    -4.523544    -9.414756    -3.262352    0.704199    3.704241    -0.972045    -0.009089    20.751261    -19.607601    13.548173    -7.014842    -21.078913    0.839909    7.892118    2.069016    -78.090683    53.122696    -0.392594    12.029152    -21.932245    -9.486487    -24.010462    -20.861225    -0.698731    -3.286102    0.802204    -8.082375    28.884596    13.164676    14.198277    -31.838200    -68.537163    19.364872    -39.993206    -62.420265    -24.914455    -0.497511    5.642359    8.127071    -0.572589    2.384076    5.826675    2.111272    -9.974989    17.158714    0.000000    0.000000    0.000000    -2.814306    0.241590    3.904245    2.644586    6.085383    9.928061    1.105701    -5.773763    -6.078656    0.000000    0.000000    0.000000    
35.142456    89.350700    77.998947    -2.567790    0.235587    -12.069603    -4.514818    -9.427475    -3.256372    0.766842    3.713919    -0.972409    0.018479    20.657610    -19.451744    13.197396    -7.064069    -20.883972    0.817925    7.861641    2.063575    -78.152374    53.071323    -0.330569    12.051372    -22.011793    -9.556838    -23.936773    -20.941353    -0.656948    -3.269286    0.783608    -8.156219    29.090372    15.701384    14.086804    -38.272907    -69.065125    14.982660    -40.302120    -63.051826    -25.820961    -0.509288    5.550403    8.035115    -0.614476    2.413109    5.784376    1.637000    -9.999789    17.502438    0.000000    0.000000    0.000000    -2.799337    0.214591    3.906178    2.639481    6.075070    9.858903    1.100303    -5.782974    -6.099087    0.000000    0.000000    0.000000    
35.146179    89.351433    77.999435    -2.550441    0.237151    -11.986134    -4.496057    -9.377199    -3.207165    0.821769    3.655988    -0.958786    -0.221222    20.491785    -19.066141    13.146123    -6.939868    -20.575377    0.763882    7.829207    2.046300    -78.141464    53.188263    -0.377743    12.098619    -22.110495    -9.386505    -23.905182    -21.028448    -0.787247    -3.244512    0.869545    -8.297739    30.143883    13.180237    12.996200    -30.188110    -68.156181    25.215591    -38.561378    -61.729076    -23.451948    -0.458767    5.570771    7.935673    -0.632308    2.397070    5.795634    2.161467    -9.961569    17.175890    0.000000    0.000000    0.000000    -2.815285    0.227334    3.857473    2.634605    6.064470    9.832428    1.105961    -5.794477    -6.107250    0.000000    0.000000    0.000000    
35.144814    89.351570    77.995453    -2.527923    0.255765    -11.900976    -4.496029    -9.420570    -3.195496    0.885853    3.727233    -0.957128    -0.281727    20.358089    -18.779924    12.878770    -6.990229    -20.278940    0.745069    7.812418    2.056203    -78.226334    53.019054    -0.251244    12.141177    -22.126575    -9.689945    -23.777901    -21.045742    -0.614938    -3.188510    1.061103    -8.361503    29.982456    18.283588    13.451903    -44.605373    -69.573746    13.103582    -40.266651    -63.487926    -26.616394    -0.498182    5.517598    7.883462    -0.674221    2.387271    5.676021    1.694364    -9.953161    17.570263    0.000000    0.000000    0.000000    -2.833385    0.219724    3.840362    2.640550    6.052643    9.818056    1.098543    -5.801208    -6.145295    0.000000    0.000000    0.000000    
35.146492    89.350601    77.998123    -2.507076    0.252830    -11.792858    -4.473892    -9.412462    -3.176609    0.922230    3.760081    -0.953030    -0.565727    20.619257    -18.399906    13.142246    -7.496482    -19.937498    0.723952    7.808093    2.047095    -78.132347    53.036354    -0.421989    12.153039    -22.166428    -9.555451    -23.689045    -21.080923    -0.706579    -3.016331    1.308922    -8.488955    30.416836    19.065145    13.097746    -46.345749    -69.724953    13.733392    -39.666016    -63.584934    -26.276951    -0.441135    5.550687    7.755400    -0.704793    2.367425    5.588654    2.227106    -9.919055    17.329580    0.000000    0.000000    0.000000    -2.855377    0.254314    3.816245    2.648951    6.015422    9.711002    1.101893    -5.812919    -6.132260    0.000000    0.000000    0.000000    
